<svg id="Capa_1" enable-background="new 0 0 510.535 510.535" height="512" viewBox="0 0 510.535 510.535" width="512" xmlns="http://www.w3.org/2000/svg"><g><g><g id="XMLID_585_"><g><path d="m504.036 262.021v108.019c0 5.457-4.424 9.881-9.881 9.881h-9.879c-1.4 0-2.78.37-3.99 1.08l-13.92 8.15c-7.79 4.56-16.66 6.97-25.69 6.97h-133.2v-143.98h186.679c5.458 0 9.881 4.423 9.881 9.88z" fill="#ffdfcf"/></g></g><path d="m494.156 363.12h-9.879c-1.4 0-2.78.37-3.99 1.08l-13.92 8.15c-7.79 4.56-16.66 6.97-25.69 6.97h-133.2v16.8h133.2c9.03 0 17.9-2.41 25.69-6.97l13.92-8.15c1.21-.71 2.59-1.08 3.99-1.08h9.879c5.457 0 9.88-4.424 9.88-9.881v-16.8c0 5.458-4.423 9.881-9.88 9.881z" fill="#ffcebf"/><g><g id="XMLID_574_"><path d="m68.856 396.121c-9.03 0-17.9-2.41-25.69-6.97l-13.92-8.15c-1.21-.71-2.59-1.08-3.99-1.08h-9.7c-5.004 0-9.06-4.056-9.06-9.06v-109.66c0-5.004 4.056-9.06 9.06-9.06h9.31.17 194.926v143.979z" fill="#eb9c8d"/><path d="m68.856 396.121c-9.03 0-17.9-2.41-25.69-6.97l-13.92-8.15c-1.21-.71-2.59-1.08-3.99-1.08h-9.7c-5.004 0-9.06-4.056-9.06-9.06v-109.66c0-5.004 4.056-9.06 9.06-9.06h9.31.17 194.926v143.979z" fill="#eb9c8d"/><path d="m43.166 364.901-13.92-8.15c-1.21-.71-2.59-1.08-3.99-1.08h-9.7c-5.004 0-9.06-4.057-9.06-9.061v24.25c0 5.004 4.056 9.061 9.06 9.061h9.7c1.4 0 2.78.37 3.99 1.08l13.92 8.15c7.79 4.56 16.66 6.97 25.69 6.97h151.106v-24.25l-151.106.001c-9.03-.001-17.9-2.411-25.69-6.971z" fill="#d78878"/><g><path d="m219.962 296.893h-38.056c-22.266 0-40.38 18.405-40.38 41.028 0 5.771 1.185 11.264 3.312 16.25-5.514 6.905-8.821 15.645-8.821 25.148 0 5.993 1.323 11.681 3.675 16.8h80.27z" fill="#d78878"/><path d="m74.546 324.461c0 12.664 10.17 23.128 22.834 23.16h.236c13.57 0 26.801-4.776 37.265-13.46l1.714-1.425c5.29 3.027 11.361 4.697 17.691 4.697.242 0 .486-.002.672-.006 6.357-.112 12.573-1.924 17.979-5.24 5.374-3.297 9.794-7.977 12.79-13.546l34.235-63.758v-2.743h-145.416z" fill="#d78878"/><path d="m234.174 233.243c11.72 0 21.232 9.501 21.232 21.232 0 5.855-2.375 11.168-6.22 15.002-3.844 3.844-9.147 6.22-15.013 6.22h-7.116-34.88c-11.731 0-21.232-9.501-21.232-21.222 0-11.731 9.501-21.232 21.232-21.232z" fill="#eb9c8d"/><path d="m249.187 256.672c-3.844 3.844-9.147 6.22-15.013 6.22h-7.116-34.88c-9.498 0-17.53-6.23-20.245-14.821-.639 2.021-.987 4.172-.987 6.406 0 11.72 9.501 21.222 21.232 21.222h34.88 7.116c5.865 0 11.168-2.375 15.013-6.22 3.844-3.834 6.22-9.147 6.22-15.002 0-2.233-.349-4.384-.988-6.406-1.04 3.284-2.852 6.227-5.232 8.601z" fill="#d78878"/><path d="m228.506 274.725c11.642 0 21.09 9.438 21.09 21.09 0 5.816-2.359 11.093-6.178 14.901-3.818 3.818-9.086 6.178-14.912 6.178h-7.068-34.646c-11.652 0-21.09-9.438-21.09-21.079 0-11.652 9.438-21.09 21.09-21.09z" fill="#eb9c8d"/><path d="m243.418 298.569c-3.818 3.818-9.086 6.178-14.912 6.178h-7.068-34.646c-9.538 0-17.584-6.328-20.192-15.008-.578 1.925-.897 3.962-.897 6.076 0 11.642 9.438 21.079 21.089 21.079h34.646 7.068c5.826 0 11.093-2.359 14.912-6.178 3.818-3.808 6.178-9.086 6.178-14.901 0-2.113-.307-4.151-.886-6.076-1.016 3.378-2.86 6.404-5.292 8.83z" fill="#d78878"/><path d="m138.386 305.241-16.29 13.54c-6.88 5.71-15.54 8.84-24.48 8.84-39.435 0-71.671-31.456-72.637-70.879l-.113-4.601h.17l64.2-56.66c18.56-16.39 45.14-20.05 67.45-9.3l32.08 15.47c16.05 7.74 22.42 27.3 13.99 43l-34.65 64.53c-1.34 2.49-3.3 4.53-5.63 5.96s-5.04 2.24-7.87 2.29c-5.87.12-11.31-3.07-14.09-8.24z" fill="#eb9c8d"/></g></g><g id="XMLID_576_"><g fill="#eb9c8d"><path d="m222.216 316.893c11.25 0 20.38 9.41 20.38 21.029 0 5.799-2.28 11.061-5.97 14.858-3.69 3.807-8.78 6.16-14.41 6.16h-6.83-33.48c-11.26 0-20.38-9.41-20.38-21.018 0-11.618 9.12-21.029 20.38-21.029z"/><path d="m215.386 358.941c11.26 0 20.38 9.13 20.38 20.38 0 5.63-2.28 10.73-5.97 14.41-3.69 3.69-8.78 5.97-14.41 5.97h-38.99c-11.25 0-20.38-9.12-20.38-20.38 0-11.25 9.13-20.38 20.38-20.38h5.51z"/></g></g><g id="XMLID_579_"><g fill="#d78878"><path d="m236.626 338.648c-3.69 3.808-8.78 6.16-14.41 6.16h-6.83-33.48c-8.852 0-16.381-5.842-19.196-13.97-.766 2.212-1.184 4.6-1.184 7.084 0 11.608 9.12 21.018 20.38 21.018h33.48 6.83c5.63 0 10.72-2.353 14.41-6.16 3.69-3.797 5.97-9.06 5.97-14.858 0-2.484-.425-4.889-1.191-7.101-1.025 2.959-2.667 5.654-4.779 7.827z"/><path d="m229.796 379.599c-3.69 3.69-8.78 5.97-14.41 5.97h-38.99c-8.763 0-16.243-5.556-19.121-13.323-.817 2.204-1.259 4.588-1.259 7.076 0 11.26 9.13 20.38 20.38 20.38h38.99c5.63 0 10.72-2.28 14.41-5.97 3.69-3.68 5.97-8.78 5.97-14.41 0-2.487-.45-4.881-1.266-7.085-1.029 2.781-2.645 5.308-4.704 7.362z"/></g></g><g id="XMLID_582_"><path d="m368.006 338.57c0-22.266-18.109-40.38-40.369-40.38h-20.16v97.93h62.365c2.353-5.12 3.675-10.807 3.675-16.8 0-9.431-3.258-18.109-8.697-24.989 2.086-4.919 3.186-10.253 3.186-15.761z" fill="#ffcebf"/><path d="m444.02 252.14h-136.544v36.082l16.34 30.439c2.989 5.553 7.409 10.229 12.78 13.525 5.405 3.316 11.621 5.128 17.92 5.239.244.005.486.007.73.007 6.329 0 12.402-1.67 17.692-4.696l1.724 1.433c10.451 8.674 23.682 13.451 37.253 13.451.113 0 .225 0 .338-.001 17.61-.062 31.766-14.564 31.766-32.174v-63.305z" fill="#ffcebf"/><path d="m327.992 274.627c12.8 0 23.177 10.377 23.177 23.188 0 6.394-2.594 12.197-6.793 16.384-4.187 4.198-9.978 6.793-16.384 6.793h-38.105-7.771c-12.8 0-23.188-10.377-23.188-23.177 0-12.812 10.388-23.188 23.188-23.188z" fill="#ffdfcf"/><path d="m344.377 298.989c-4.187 4.198-9.979 6.792-16.384 6.792h-38.104-7.771c-10.136 0-18.764-6.517-21.914-15.582-.828 2.384-1.274 4.949-1.274 7.615 0 12.8 10.388 23.177 23.188 23.177h7.771 38.104c6.406 0 12.197-2.594 16.384-6.792 4.198-4.187 6.792-9.99 6.792-16.384 0-2.667-.455-5.225-1.283-7.609-1.16 3.341-3.058 6.339-5.509 8.783z" fill="#ffcebf"/><path d="m325.315 233.87c12.8 0 23.177 10.377 23.177 23.188 0 6.394-2.594 12.197-6.793 16.384-4.187 4.198-9.978 6.793-16.384 6.793h-38.105-7.771c-12.8 0-23.188-10.377-23.188-23.177 0-12.812 10.388-23.188 23.188-23.188z" fill="#ffdfcf"/><path d="m325.315 233.87c12.8 0 23.177 10.377 23.177 23.188 0 6.394-2.594 12.197-6.793 16.384-4.187 4.198-9.978 6.793-16.384 6.793h-38.105-7.771c-12.8 0-23.188-10.377-23.188-23.177 0-12.812 10.388-23.188 23.188-23.188z" fill="#ffdfcf"/><path d="m342.383 259.573c-4.187 4.199-9.979 6.793-16.384 6.793h-38.104-7.771c-10.782 0-19.853-7.373-22.446-17.344-.923 2.501-1.426 5.214-1.426 8.036 0 12.8 10.388 23.177 23.188 23.177h7.771 38.105c6.406 0 12.197-2.594 16.384-6.792 4.198-4.187 6.793-9.99 6.793-16.384 0-2.021-.259-3.98-.744-5.849-1.173 3.173-3.018 6.021-5.366 8.363z" fill="#ffcebf"/><g><path d="m371.146 305.241-2.12 3.95c-2.78 5.17-8.23 8.36-14.1 8.24-2.83-.05-5.54-.86-7.87-2.29s-4.29-3.47-5.63-5.96l-34.64-64.53c-8.43-15.7-2.07-35.26 13.98-43l32.09-15.47c22.3-10.75 48.88-7.09 67.45 9.3l64.19 56.66h1.5v1.4c0 40.913-33.167 74.08-74.08 74.08-8.94 0-17.6-3.13-24.48-8.84z" fill="#ffdfcf"/></g></g><g id="XMLID_587_"><g fill="#ffdfcf"><path d="m327.636 318.191c11.25 0 20.37 9.12 20.37 20.38 0 5.62-2.28 10.72-5.97 14.4-3.68 3.69-8.77 5.97-14.4 5.97h-33.49-6.83c-11.25 0-20.38-9.12-20.38-20.37 0-11.26 9.13-20.38 20.38-20.38z"/><path d="m333.136 358.941c11.26 0 20.38 9.13 20.38 20.38 0 11.26-9.12 20.38-20.38 20.38h-38.99c-5.63 0-10.72-2.28-14.41-5.97-3.69-3.68-5.97-8.78-5.97-14.41 0-11.25 9.12-20.38 20.38-20.38h33.49z"/></g></g><g id="XMLID_589_"><g fill="#ffcebf"><path d="m334.466 344.876h-33.49-6.83c-11.25 0-20.38-9.12-20.38-20.37 0-.399.026-.807.048-1.201-4.216 3.733-6.878 9.189-6.878 15.266 0 11.25 9.13 20.37 20.38 20.37h6.83 33.49c5.63 0 10.72-2.28 14.4-5.97 3.43-3.421 5.639-8.099 5.933-13.251-3.588 3.184-8.321 5.156-13.503 5.156z"/><path d="m339.966 385.636h-38.99c-5.63 0-10.72-2.28-14.41-5.97-3.69-3.68-5.97-8.78-5.97-14.41 0-.399.005-.789.028-1.183-4.217 3.735-6.857 9.174-6.857 15.248 0 5.63 2.28 10.73 5.97 14.41 3.69 3.69 8.78 5.97 14.41 5.97h38.99c10.86 0 19.73-8.5 20.347-19.204-3.596 3.181-8.336 5.139-13.518 5.139z"/></g></g><path d="m238.993 186.646-27.805-32.826c-10.282-10.327-10.891-26.826-1.397-37.881 9.532-11.101 26.019-12.957 37.781-4.254l6.481 4.795c.673.498 1.592.498 2.265 0l6.481-4.795c11.762-8.703 28.248-6.847 37.781 4.254 9.494 11.056 8.886 27.555-1.397 37.881l-32.685 32.826c-6.239 6.267-21.265 6.267-27.505 0z" fill="#f07281"/></g></g><g><path d="m7.5 259.644h17.538c1.828 0 3.593-.668 4.963-1.877l31.756-28.031c3.105-2.741 3.401-7.481.66-10.586-2.741-3.106-7.481-3.402-10.586-.66l-29.63 26.154h-14.701c-4.143 0-7.5 3.357-7.5 7.5s3.357 7.5 7.5 7.5z"/><path d="m418.296 203.711 61.238 54.057c1.37 1.209 3.135 1.877 4.963 1.877h18.538c4.143 0 7.5-3.357 7.5-7.5s-3.357-7.5-7.5-7.5h-15.701l-59.112-52.18c-3.104-2.739-7.844-2.445-10.586.66-2.741 3.104-2.446 7.845.66 10.586z"/><path d="m503.035 372.421h-18.759c-2.732 0-5.422.729-7.777 2.108l-13.922 8.151c-6.636 3.886-14.209 5.939-21.898 5.939h-81.263c1.032-2.91 1.6-6.038 1.6-9.297 0-9.474-4.754-17.854-11.998-22.895 4.051-4.841 6.495-11.071 6.495-17.862 0-5.055-1.359-9.796-3.722-13.889.984.148 1.982.236 2.991.255.152.003.304.004.456.004 6.987 0 13.46-3.104 17.81-8.363l9.596 7.971c8.207 6.818 18.604 10.573 29.272 10.573h30.964c4.143 0 7.5-3.357 7.5-7.5s-3.357-7.5-7.5-7.5h-30.964c-7.176 0-14.167-2.525-19.687-7.11l-11.599-9.637c7.977-15.519 8.129-33.995.327-49.646l-9.753-19.563c-1.848-3.705-6.347-5.214-10.059-3.365-3.707 1.848-5.214 6.352-3.365 10.059l9.753 19.563c5.782 11.599 5.571 25.338-.566 36.754l-4.551 8.466c-1.431 2.662-4.173 4.298-7.188 4.298-.053 0-.106-.001-.16-.002-2.946-.056-5.643-1.703-7.036-4.301l-34.643-64.528c-3.1-5.774-3.69-12.387-1.664-18.618 2.026-6.232 6.394-11.232 12.296-14.079l32.089-15.47c11.639-5.612 24.938-6.86 37.442-3.515 4.005 1.074 8.113-1.306 9.184-5.307s-1.306-8.113-5.307-9.184c-15.975-4.272-32.963-2.678-47.834 4.493l-32.089 15.47c-9.623 4.641-16.742 12.792-20.046 22.952-1.211 3.725-1.843 7.532-1.916 11.325h-20.399c-8.037 0-15.286 3.423-20.379 8.882-5.092-5.459-12.341-8.882-20.378-8.882h-20.4c-.073-3.793-.705-7.601-1.916-11.325-3.304-10.16-10.423-18.312-20.047-22.952l-32.087-15.47c-25.088-12.097-54.789-8.002-75.671 10.429l-8.446 7.456c-3.104 2.741-3.4 7.481-.659 10.587 2.741 3.104 7.479 3.399 10.587.659l8.445-7.456c16.346-14.427 39.595-17.631 59.229-8.163l32.087 15.47c5.903 2.847 10.271 7.847 12.297 14.079 2.026 6.231 1.436 12.844-1.664 18.617l-34.643 64.53c-1.394 2.597-4.09 4.244-7.038 4.3-3.065.041-5.89-1.586-7.346-4.296l-4.552-8.467c-6.137-11.415-6.348-25.154-.565-36.753l9.753-19.563c1.849-3.707.342-8.211-3.365-10.059-3.708-1.849-8.21-.341-10.059 3.365l-9.753 19.563c-7.802 15.651-7.65 34.127.327 49.646l-11.599 9.636c-5.52 4.585-12.511 7.11-19.687 7.11h-30.962c-4.143 0-7.5 3.357-7.5 7.5s3.357 7.5 7.5 7.5h30.964c10.669 0 21.065-3.755 29.272-10.573l9.596-7.971c4.35 5.259 10.823 8.364 17.808 8.363.151 0 .304-.001.456-.004 1.01-.019 2.01-.107 2.994-.255-2.362 4.093-3.722 8.833-3.722 13.889 0 6.792 2.444 13.021 6.494 17.862-7.244 5.041-11.998 13.421-11.998 22.895 0 3.259.567 6.387 1.6 9.297h-81.262c-7.689 0-15.263-2.054-21.898-5.94l-13.922-8.151c-2.356-1.379-5.046-2.107-7.777-2.107h-17.759c-4.143 0-7.5 3.357-7.5 7.5s3.357 7.5 7.5 7.5h17.759c.071 0 .141.019.199.054l13.92 8.149c8.934 5.231 19.127 7.996 29.479 7.996h93.896c4.036 2.276 8.69 3.581 13.645 3.581h38.992c15.372 0 27.878-12.506 27.878-27.878 0-6.527-2.261-12.533-6.033-17.29 7.726-4.961 12.859-13.624 12.859-23.467 0-6.685-2.367-12.825-6.304-17.633 5.126-3.46 9.041-8.579 10.978-14.58 1.937 6 5.852 11.12 10.978 14.579-3.937 4.808-6.304 10.949-6.304 17.634 0 9.844 5.133 18.506 12.859 23.467-3.772 4.756-6.033 10.762-6.033 17.29 0 15.372 12.506 27.878 27.878 27.878h38.992c4.955 0 9.608-1.305 13.645-3.581h93.896c10.352 0 20.545-2.765 29.478-7.995l13.922-8.151c.06-.034.128-.053.198-.053h18.759c4.143 0 7.5-3.357 7.5-7.5s-3.358-7.498-7.501-7.498zm-215.715-20.977c-7.102 0-12.879-5.777-12.879-12.878 0-7.102 5.777-12.879 12.879-12.879h40.313c7.102 0 12.879 5.777 12.879 12.879 0 7.101-5.777 12.878-12.879 12.878zm-6.018-40.757c-7.102 0-12.879-5.777-12.879-12.878 0-7.102 5.777-12.879 12.879-12.879h38.591l13.175 24.541c-1.686.787-3.537 1.216-5.434 1.216zm-53.068 0s-50.08-.429-51.767-1.216l13.175-24.541h38.592c7.101 0 12.878 5.777 12.878 12.879 0 7.101-5.777 12.878-12.878 12.878zm-6.019 40.757h-40.313c-7.101 0-12.878-5.777-12.878-12.878 0-7.102 5.777-12.879 12.878-12.879h40.313c7.102 0 12.879 5.777 12.879 12.879 0 7.101-5.778 12.878-12.879 12.878zm32.553-75.395c1.47 1.575 3.116 2.983 4.913 4.186-2.159 2.651-3.84 5.706-4.913 9.031-1.073-3.325-2.754-6.379-4.913-9.031 1.796-1.203 3.443-2.611 4.913-4.186zm20.378-31.875h23.157c.546 1.364 13.537 25.757 13.537 25.757h-36.694c-7.102 0-12.879-5.777-12.879-12.878.001-7.102 5.778-12.879 12.879-12.879zm-63.914 0h23.158c7.101 0 12.878 5.777 12.878 12.879 0 7.101-5.777 12.878-12.878 12.878h-36.695s12.991-24.393 13.537-25.757zm4.158 148.027h-38.992c-7.101 0-12.878-5.777-12.878-12.878 0-7.102 5.777-12.879 12.878-12.879h38.992c7.101 0 12.878 5.777 12.878 12.879 0 7.101-5.778 12.878-12.878 12.878zm65.878-12.878c0-7.102 5.777-12.879 12.878-12.879h38.992c7.101 0 12.878 5.777 12.878 12.879 0 7.101-5.777 12.878-12.878 12.878h-38.992c-7.101 0-12.878-5.777-12.878-12.878z"/><path d="m238.559 191.938c4.436 4.455 10.341 6.908 16.628 6.908 6.286 0 12.191-2.453 16.628-6.908l8.353-8.39c2.922-2.936 2.911-7.685-.023-10.607-2.936-2.923-7.684-2.912-10.607.023l-8.352 8.39c-1.601 1.606-3.73 2.492-5.998 2.492-2.269 0-4.398-.886-5.999-2.492l-32.686-32.826c-7.47-7.503-7.919-19.672-1.021-27.703 6.936-8.076 19.073-9.443 27.63-3.112l6.484 4.799c3.346 2.473 7.84 2.474 11.186-.003l6.479-4.795c8.56-6.333 20.694-4.966 27.631 3.11 6.897 8.032 6.448 20.201-1.021 27.704l-1.779 1.787c-2.923 2.936-2.912 7.685.022 10.606 2.936 2.924 7.685 2.912 10.606-.022l1.779-1.787c12.959-13.016 13.737-34.126 1.772-48.06-12.031-14.011-33.085-16.383-47.934-5.396l-3.151 2.332-3.152-2.333c-14.846-10.985-35.901-8.613-47.932 5.396-11.966 13.935-11.188 35.045 1.771 48.061z"/><path d="m224.197 69.848c1.12 3.025 3.986 4.897 7.034 4.897.865 0 1.745-.15 2.604-.469 3.885-1.438 5.867-5.754 4.429-9.638l-4.826-13.031c-1.438-3.885-5.757-5.871-9.638-4.429-3.885 1.438-5.867 5.754-4.429 9.638z"/><path d="m148.816 95.765 13.16 10.618c1.388 1.119 3.052 1.663 4.705 1.663 2.189 0 4.36-.954 5.842-2.79 2.601-3.224 2.097-7.946-1.127-10.547l-13.16-10.618c-3.226-2.602-7.947-2.096-10.547 1.127s-2.096 7.946 1.127 10.547z"/><path d="m277.978 74.277c.858.318 1.738.469 2.604.469 3.048 0 5.914-1.872 7.034-4.897l4.826-13.031c1.438-3.884-.544-8.199-4.429-9.638-3.884-1.441-8.199.544-9.638 4.429l-4.826 13.031c-1.439 3.883.544 8.199 4.429 9.637z"/><path d="m345.131 108.046c1.653 0 3.317-.544 4.705-1.663l13.16-10.618c3.224-2.601 3.728-7.323 1.127-10.547-2.601-3.223-7.322-3.729-10.547-1.127l-13.16 10.618c-3.224 2.601-3.728 7.323-1.127 10.547 1.482 1.836 3.652 2.79 5.842 2.79z"/><path d="m235.866 428.835c-3.363-2.414-8.05-1.647-10.467 1.719l-15.362 21.397c-2.415 3.364-1.646 8.051 1.719 10.467 1.324.95 2.853 1.408 4.368 1.408 2.333 0 4.634-1.087 6.099-3.127l15.362-21.397c2.415-3.365 1.646-8.051-1.719-10.467z"/><path d="m286.413 430.554c-2.418-3.366-7.104-4.133-10.467-1.719-3.365 2.416-4.134 7.103-1.719 10.467l15.362 21.397c1.466 2.041 3.766 3.127 6.099 3.127 1.515 0 3.044-.458 4.368-1.408 3.365-2.416 4.134-7.103 1.719-10.467z"/></g></g></svg>