<svg width="100" height="100" viewBox="0 0 100 100" fill="none" xmlns="http://www.w3.org/2000/svg">
<g clip-path="url(#clip0)">
<path d="M79.0315 61.9464C76.9842 59.8148 74.5149 58.6751 71.8978 58.6751C69.3018 58.6751 66.8113 59.7937 64.6796 61.9253L58.0102 68.5736C57.4615 68.2781 56.9127 68.0038 56.3851 67.7294C55.6253 67.3495 54.9077 66.9907 54.2956 66.6108C48.0483 62.6429 42.3709 57.472 36.9256 50.7815C34.2874 47.4468 32.5146 44.6398 31.2271 41.7905C32.9578 40.2076 34.5618 38.5613 36.1236 36.9784C36.7146 36.3874 37.3055 35.7754 37.8965 35.1844C42.3287 30.7522 42.3287 25.0115 37.8965 20.5793L32.1347 14.8174C31.4804 14.1632 30.805 13.4878 30.1718 12.8124C28.9055 11.5039 27.5758 10.1531 26.204 8.88675C24.1567 6.8606 21.7084 5.78421 19.1335 5.78421C16.5587 5.78421 14.0682 6.8606 11.9576 8.88675C11.9365 8.90785 11.9365 8.90785 11.9154 8.92896L4.73947 16.1682C2.03795 18.8697 0.497231 22.1622 0.15954 25.9824C-0.346997 32.1452 1.46809 37.886 2.86107 41.6428C6.28019 50.866 11.3878 59.4138 19.0069 68.5736C28.2512 79.6119 39.3739 88.3285 52.0795 94.4703C56.9338 96.7708 63.4133 99.4934 70.6525 99.9578C71.0957 99.9789 71.5601 100 71.9822 100C76.8576 100 80.9521 98.2482 84.1602 94.7658C84.1813 94.7236 84.2235 94.7025 84.2446 94.6602C85.3421 93.3306 86.6084 92.1276 87.9381 90.8401C88.8456 89.9748 89.7743 89.0672 90.6818 88.1175C92.7713 85.9436 93.8688 83.4109 93.8688 80.8149C93.8688 78.1978 92.7502 75.6862 90.6185 73.5757L79.0315 61.9464ZM86.5873 84.1707C86.5662 84.1707 86.5662 84.1918 86.5873 84.1707C85.7642 85.0572 84.92 85.8592 84.0124 86.7456C82.6406 88.0542 81.2476 89.426 79.939 90.9668C77.8074 93.2462 75.2958 94.3226 72.0033 94.3226C71.6867 94.3226 71.349 94.3226 71.0324 94.3014C64.764 93.9004 58.9389 91.4522 54.57 89.3627C42.6242 83.5798 32.1347 75.3697 23.418 64.9645C16.221 56.2901 11.4089 48.27 8.22191 39.6588C6.25908 34.4035 5.54149 30.309 5.85807 26.4467C6.06913 23.9773 7.01889 21.9301 8.77066 20.1783L15.9677 12.9812C17.0019 12.0104 18.0994 11.4827 19.1758 11.4827C20.5054 11.4827 21.5818 12.2848 22.2572 12.9601C22.2783 12.9812 22.2994 13.0024 22.3205 13.0235C23.608 14.2265 24.8321 15.4717 26.1195 16.8014C26.7738 17.4768 27.4492 18.1521 28.1246 18.8486L33.8864 24.6105C36.1236 26.8477 36.1236 28.916 33.8864 31.1532C33.2744 31.7653 32.6834 32.3774 32.0713 32.9683C30.2985 34.7834 28.61 36.4719 26.7738 38.1181C26.7316 38.1603 26.6894 38.1814 26.6683 38.2236C24.8532 40.0387 25.1909 41.8116 25.5708 43.0146C25.5919 43.078 25.613 43.1413 25.6341 43.2046C27.1326 46.8348 29.2432 50.2539 32.4512 54.3273L32.4723 54.3484C38.2975 61.5243 44.4393 67.1173 51.2142 71.4018C52.0795 71.9505 52.966 72.3938 53.8102 72.8159C54.57 73.1958 55.2876 73.5546 55.8996 73.9345C55.9841 73.9767 56.0685 74.04 56.1529 74.0822C56.8705 74.441 57.5459 74.6098 58.2424 74.6098C59.9942 74.6098 61.0917 73.5123 61.4504 73.1536L68.6686 65.9354C69.3862 65.2178 70.5259 64.3525 71.8555 64.3525C73.1641 64.3525 74.2405 65.1756 74.8948 65.8932C74.9159 65.9143 74.9159 65.9143 74.937 65.9354L86.5662 77.5646C88.7401 79.7174 88.7401 81.9335 86.5873 84.1707Z" fill="#7A9ADA"/>
<path d="M54.0424 23.7874C59.5721 24.716 64.5952 27.3331 68.6053 31.3432C72.6154 35.3533 75.2114 40.3764 76.1611 45.9061C76.3933 47.2991 77.5963 48.27 78.9682 48.27C79.137 48.27 79.2848 48.2488 79.4536 48.2277C81.0154 47.9745 82.0496 46.4971 81.7964 44.9353C80.6566 38.2448 77.4908 32.1452 72.6576 27.312C67.8244 22.4788 61.7248 19.313 55.0343 18.1732C53.4725 17.92 52.0162 18.9542 51.7418 20.4949C51.4675 22.0356 52.4805 23.5341 54.0424 23.7874Z" fill="#7A9ADA"/>
<path d="M99.8839 44.1121C98.0055 33.095 92.8135 23.0698 84.8355 15.0918C76.8576 7.11387 66.8324 1.92188 55.8152 0.0434691C54.2745 -0.230905 52.8182 0.82438 52.5438 2.36509C52.2906 3.92692 53.3248 5.38321 54.8866 5.65758C64.7218 7.32493 73.6917 11.9893 80.8255 19.1019C87.9592 26.2356 92.6024 35.2055 94.2698 45.0408C94.502 46.4338 95.705 47.4046 97.0768 47.4046C97.2457 47.4046 97.3934 47.3835 97.5623 47.3624C99.103 47.1303 100.158 45.6529 99.8839 44.1121Z" fill="#7A9ADA"/>
</g>
<defs>
<clipPath id="clip0">
<rect width="100" height="100" fill="white"/>
</clipPath>
</defs>
</svg>
