<svg width="100" height="100" viewBox="0 0 100 100" fill="none" xmlns="http://www.w3.org/2000/svg">
<g clip-path="url(#clip0)">
<path d="M80.5027 94.7238C79.7216 94.7238 78.9457 94.4926 78.2802 94.0414L53.1362 76.9856L39.6504 86.6894C38.5927 87.4499 37.2295 87.6415 36.0013 87.2024C34.7748 86.7622 33.8433 85.7462 33.5108 84.4864L26.7393 58.8247L2.54433 49.5733C1.02116 48.9906 0.0109924 47.5334 -9.10041e-05 45.9026C-0.0111744 44.2717 0.97894 42.8008 2.49472 42.1976L94.4931 5.59076C94.9105 5.41342 95.3523 5.31103 95.7977 5.28359C95.9571 5.27409 96.117 5.27409 96.2759 5.28306C97.1985 5.33795 98.1047 5.71373 98.8119 6.40723C98.8852 6.47901 98.9549 6.55237 99.0209 6.6289C99.6067 7.29813 99.9287 8.11407 99.9894 8.94533C100.004 9.15433 100.003 9.36597 99.9846 9.57761C99.9719 9.72855 99.9503 9.87897 99.9197 10.0283L84.3908 91.5064C84.1412 92.8153 83.2503 93.911 82.0195 94.4214C81.5313 94.624 81.0157 94.7238 80.5027 94.7238ZM55.3439 68.9169L77.7413 84.1091L89.8243 20.7101L46.1838 62.7034L55.2384 68.8457C55.2748 68.8684 55.3096 68.8927 55.3439 68.9169ZM36.6991 65.5386L39.6979 76.9017L46.159 72.2525L37.6987 66.5134C37.3055 66.2474 36.9688 65.916 36.6991 65.5386ZM14.8495 45.8018L31.463 52.1536C32.6531 52.6085 33.5514 53.6092 33.8765 54.841L35.9834 62.8258C36.08 61.9049 36.4975 61.0382 37.1757 60.3854L78.7589 20.3723L14.8495 45.8018Z" fill="#7A9ADA"/>
</g>
<defs>
<clipPath id="clip0">
<rect width="100" height="100" fill="white"/>
</clipPath>
</defs>
</svg>
