<svg width="100" height="100" viewBox="0 0 100 100" fill="none" xmlns="http://www.w3.org/2000/svg">
<g clip-path="url(#clip0)">
<path d="M87.9244 11.1874C80.0197 3.43778 67.24 -0.317207 49.9339 0.0211515C32.4838 0.364357 20.8192 3.42721 13.2251 9.66041C5.88251 15.6865 2.4628 24.5046 2.4628 37.4111V50.5833C2.4628 65.82 10.6275 82.571 26.2321 85.1056C28.0336 85.4004 29.7306 84.1756 30.0232 82.3736C30.3157 80.5726 29.0927 78.8751 27.2912 78.5825C15.457 76.6603 9.07137 62.7219 9.07137 50.5833V37.4111C9.07137 18.9045 15.9289 7.29939 50.0634 6.62796C65.5385 6.32132 76.7079 9.44541 83.2971 15.906C88.4319 20.9412 90.9282 27.9754 90.9282 37.4111V50.5833C90.9282 70.5297 81.9754 79.3275 59.0128 81.9181H42.7301C41.8538 81.9181 41.0132 82.2661 40.3938 82.886L28.9209 94.3589C27.6304 95.6494 27.6304 97.7416 28.9209 99.0321C29.5659 99.6771 30.4118 100 31.2572 100C32.1027 100 32.9486 99.6775 33.5936 99.0321L44.099 88.5267H59.1974C59.319 88.5267 59.441 88.52 59.5622 88.5064C72.7035 87.0468 81.7026 83.6266 87.8817 77.7423C94.3788 71.555 97.5372 62.6713 97.5372 50.5829V37.4111C97.5372 26.2651 94.303 17.4422 87.9244 11.1874Z" fill="#7A9ADA"/>
<path d="M52.0623 21.5827C52.0627 21.5827 52.0627 21.5827 52.0636 21.5827C57.3879 21.5827 62.3937 23.6565 66.1588 27.4216C69.9244 31.1872 71.9982 36.1938 71.9977 41.519C71.9977 43.3438 73.4767 44.8233 75.3016 44.8233C75.302 44.8233 75.302 44.8233 75.302 44.8233C77.1269 44.8233 78.6063 43.3443 78.6063 41.5194C78.6067 34.4289 75.8457 27.7626 70.832 22.7489C65.8187 17.7352 59.1537 14.9746 52.0636 14.9746C52.0632 14.9746 52.0619 14.9746 52.0614 14.9746C50.2366 14.9746 48.7576 16.454 48.7576 18.2789C48.758 20.1033 50.2375 21.5827 52.0623 21.5827Z" fill="#7A9ADA"/>
<path d="M52.0614 33.2023C56.6469 33.2032 60.3781 36.934 60.3785 41.519C60.379 43.3439 61.858 44.8233 63.6833 44.8229C65.5085 44.8229 66.9876 43.343 66.9871 41.5181C66.9858 33.29 60.2909 26.5951 52.0623 26.5938H52.0619C50.237 26.5938 48.758 28.0728 48.7576 29.8976C48.7576 31.7225 50.2366 33.2023 52.0614 33.2023Z" fill="#7A9ADA"/>
<path d="M37.245 38.8641C35.7387 39.8942 35.3523 41.9503 36.382 43.4566C37.4116 44.963 39.4682 45.3489 40.9745 44.3193C42.1592 43.5095 44.9339 41.6124 44.7391 37.82C44.6158 35.5502 42.5685 32.3093 40.8727 29.9901C38.3923 26.5969 36.2546 24.5531 34.5324 23.9195C32.9243 23.3208 31.2427 23.308 29.5306 23.8825C25.9845 25.0773 23.4098 27.2366 22.0854 30.1267C20.7959 32.9402 20.8245 36.1736 22.1687 39.4792C25.3434 47.2676 29.7879 54.0863 35.4083 59.775C41.0674 65.3654 47.8857 69.8099 55.6772 72.9864C57.3633 73.6723 59.0313 74.0156 60.6345 74.0156C62.1721 74.0156 63.6502 73.7001 65.0275 73.0688C67.9176 71.744 70.0764 69.1697 71.2726 65.6191C71.8453 63.911 71.8325 62.2303 71.2386 60.6332C70.6007 58.8987 68.5564 56.7615 65.1636 54.281C62.844 52.5853 59.6031 50.5379 57.3245 50.4141C53.54 50.2238 51.6447 52.9937 50.8349 54.1784C49.8048 55.6847 50.1903 57.7408 51.6967 58.7713C53.2034 59.8018 55.2591 59.4159 56.2896 57.9096C56.6491 57.384 56.8544 57.1452 56.9721 57.0408C58.8269 57.6351 64.1159 61.521 65.068 63.0101C65.0913 63.1052 65.0966 63.2502 65.0085 63.5141C64.5917 64.7517 63.7789 66.3716 62.2743 67.0616C60.8649 67.7066 59.2635 67.3109 58.17 66.8664C51.1882 64.0199 45.0929 60.0525 40.081 55.1018C35.1021 50.0621 31.1347 43.9668 28.29 36.9877C27.8441 35.8916 27.448 34.2892 28.0935 32.8812C28.783 31.3766 30.4034 30.5633 31.637 30.1474C31.9005 30.0593 32.0454 30.0642 32.1459 30.0884C33.6354 31.0422 37.5191 36.3282 38.1138 38.1834C38.009 38.2993 37.7706 38.5051 37.245 38.8641Z" fill="#7A9ADA"/>
</g>
<defs>
<clipPath id="clip0">
<rect width="100" height="100" fill="white"/>
</clipPath>
</defs>
</svg>
