<svg width="100" height="100" viewBox="0 0 100 100" fill="none" xmlns="http://www.w3.org/2000/svg">
<path d="M49.9982 0C22.9753 0 0.991516 21.9847 0.991516 49.0071C0.991516 59.5831 5.28413 69.0791 7.13012 72.6712C7.98955 74.3442 10.043 75.0025 11.7151 74.1435C13.3877 73.2841 14.0469 71.2311 13.1874 69.5585C11.5685 66.4073 7.80204 58.0963 7.80204 49.0066C7.80159 25.7398 26.7309 6.81007 49.9982 6.81007C73.2677 6.81007 92.1984 25.7398 92.1984 49.0071C92.1984 72.2753 73.2677 91.205 49.9982 91.205C40.8981 91.205 33.6672 88.0542 30.9804 86.699C30.1836 86.2968 29.2606 86.2241 28.4107 86.4961L6.96259 93.3502C5.17154 93.9227 4.18317 95.8386 4.75567 97.6301C5.21785 99.077 6.55716 99.9996 7.99817 99.9996C8.34185 99.9996 8.69098 99.9473 9.03557 99.837L29.1893 93.3965C33.4056 95.3537 40.8268 98.0151 49.9982 98.0151C77.0223 98.0151 99.0084 76.0304 99.0084 49.0071C99.0084 21.9847 77.0223 0 49.9982 0Z" fill="#7A9ADA"/>
<path d="M40.3365 40.6502C38.8451 41.7957 38.565 43.9331 39.71 45.425C40.8554 46.9164 42.9924 47.197 44.4847 46.0515C45.5285 45.2497 48.3011 43.1205 47.8952 39.3118C47.6451 37.0477 45.4359 33.9409 43.6267 31.734C40.9794 28.5042 38.7384 26.5915 36.9787 26.0531C35.3297 25.5419 33.6399 25.6227 31.9547 26.2937C28.4879 27.6793 26.0412 29.9748 24.879 32.9321C23.7472 35.8123 23.9528 39.0353 25.4751 42.256C29.0286 49.7571 33.7779 56.2353 39.5915 61.5117C39.6142 61.5331 39.6373 61.554 39.6605 61.5748C45.5566 66.7868 52.5324 70.8025 60.3971 73.512C61.8895 74.0246 63.3541 74.2802 64.7606 74.2802C66.5276 74.2802 68.2033 73.877 69.7274 73.0734C72.5381 71.5916 74.5494 68.907 75.545 65.3031C76.0245 63.5561 75.9173 61.869 75.2322 60.2982C74.4972 58.5979 72.3493 56.5826 68.8471 54.3085C66.4549 52.7549 63.1262 50.9035 60.8384 50.9035C60.8371 50.9035 60.8353 50.9035 60.8334 50.9035C57.0171 50.9189 55.2052 53.9094 54.5232 55.0358C53.5489 56.6444 54.0629 58.7382 55.6714 59.7125C57.279 60.6868 59.3734 60.1733 60.3481 58.5643C60.6173 58.1194 60.788 57.8833 60.8952 57.7598C62.8184 58.3183 67.9627 61.6834 69.0169 63.0994C69.0341 63.1748 69.0364 63.2887 68.9797 63.4962C68.6441 64.7107 67.95 66.3128 66.5512 67.0501C65.2441 67.7384 63.6855 67.442 62.6118 67.0733C55.6142 64.6625 49.4216 61.1068 44.2051 56.5045C44.2037 56.5032 44.2019 56.5018 44.2005 56.5C39.0353 51.8201 34.8058 46.0474 31.63 39.3441C31.1438 38.3144 30.6766 36.7984 31.2169 35.4242C31.7953 33.9523 33.3112 33.086 34.478 32.6198C34.6782 32.5399 34.7913 32.5276 34.8735 32.5385C36.398 33.4306 40.3074 38.1691 41.0752 40.0192C40.9644 40.1386 40.7483 40.3338 40.3365 40.6502Z" fill="#7A9ADA"/>
</svg>
